<svg width="31" height="61" viewBox="0 0 31 61" fill="none" xmlns="http://www.w3.org/2000/svg">
<path d="M1.19531 61H-1.30469V63.5H1.19531V61ZM1.19531 56.1221V53.6221H-1.30469V56.1221H1.19531ZM0.360352 10.375H-2.13965V12.875H0.360352V10.375ZM0.360352 5.67285L0.25588 3.17504L-2.13965 3.27523V5.67285H0.360352ZM18.5098 0.355469V-2.14453H17.6913L17.0314 -1.66054L18.5098 0.355469ZM23.168 0.355469H25.668V-2.14453H23.168V0.355469ZM24.1348 54.8477L22.143 56.3586L22.1593 56.3801L22.176 56.4011L24.1348 54.8477ZM30.6387 56.1221H33.1387V53.6221H30.6387V56.1221ZM30.6387 61V63.5H33.1387V61H30.6387ZM3.69531 61V56.1221H-1.30469V61H3.69531ZM1.19531 58.6221H3.39258V53.6221H1.19531V58.6221ZM3.39258 58.6221C5.41295 58.6221 7.36835 58.2941 8.88161 57.269L6.07737 53.1294C5.77423 53.3348 5.00501 53.6221 3.39258 53.6221V58.6221ZM8.88161 57.269C9.96165 56.5374 10.5598 55.4417 10.8891 54.3794C11.218 53.3184 11.3418 52.0988 11.3418 50.8047H6.3418C6.3418 51.825 6.23851 52.4951 6.11333 52.8989C5.98853 53.3015 5.90554 53.2458 6.07737 53.1294L8.88161 57.269ZM11.3418 50.8047V17.4062H6.3418V50.8047H11.3418ZM11.3418 17.4062C11.3418 15.7355 11.2317 14.257 10.9666 13.0322C10.7178 11.8823 10.2532 10.5679 9.23625 9.65615L5.89852 13.379C5.7312 13.229 5.90382 13.2769 6.07976 14.0898C6.23951 14.828 6.3418 15.9129 6.3418 17.4062H11.3418ZM9.23625 9.65615C8.22818 8.75237 6.76712 8.38922 5.51987 8.19148C4.13461 7.97187 2.39872 7.875 0.360352 7.875V12.875C2.27707 12.875 3.71988 12.9686 4.73697 13.1298C5.89206 13.3129 6.05698 13.5211 5.89852 13.379L9.23625 9.65615ZM2.86035 10.375V5.67285H-2.13965V10.375H2.86035ZM0.464823 8.17067C8.46803 7.83593 15.0594 5.98591 19.9882 2.37148L17.0314 -1.66054C13.1711 1.17034 7.66283 2.86524 0.25588 3.17504L0.464823 8.17067ZM18.5098 2.85547H23.168V-2.14453H18.5098V2.85547ZM20.668 0.355469V50.541H25.668V0.355469H20.668ZM20.668 50.541C20.668 52.6881 20.9827 54.8291 22.143 56.3586L26.1265 53.3367C25.9978 53.167 25.668 52.4369 25.668 50.541H20.668ZM22.176 56.4011C22.9336 57.3563 23.9791 57.8964 25.0074 58.2007C26.0357 58.505 27.2038 58.6221 28.4414 58.6221V53.6221C27.4818 53.6221 26.8334 53.5267 26.4262 53.4062C26.019 53.2857 26.0098 53.1886 26.0935 53.2942L22.176 56.4011ZM28.4414 58.6221H30.6387V53.6221H28.4414V58.6221ZM28.1387 56.1221V61H33.1387V56.1221H28.1387ZM30.6387 58.5H1.19531V63.5H30.6387V58.5Z" fill="#FAFAFA"/>
</svg>
