<svg width="42" height="63" viewBox="0 0 42 63" fill="none" xmlns="http://www.w3.org/2000/svg">
<path d="M27.5312 25.8877L26.689 24.0737L27.4855 27.8872L27.5312 25.8877ZM37.375 29.8428L36.0087 31.3033L36.0171 31.3112L37.375 29.8428ZM4.9873 59.7695L3.96866 61.4907L3.9752 61.4946L3.98176 61.4984L4.9873 59.7695ZM2.43848 49.0469L3.75549 50.552L3.75808 50.5498L2.43848 49.0469ZM9.77734 48.7832L8.36313 50.1974L8.37472 50.209L8.3865 50.2204L9.77734 48.7832ZM12.2822 53.0898L14.1589 52.3984L14.1547 52.387L14.1503 52.3756L12.2822 53.0898ZM24.1035 54.1445L22.5566 52.8769L22.5546 52.8792L24.1035 54.1445ZM13.6006 33.71L11.9481 34.8366L11.9652 34.8617L11.9831 34.8863L13.6006 33.71ZM13.6006 30.0625L12.1442 28.6918L12.1222 28.7152L12.1009 28.7393L13.6006 30.0625ZM24.2793 7.91406L22.85 9.31299L22.8575 9.32067L22.8651 9.32828L24.2793 7.91406ZM14.6113 7.60645L15.8568 9.17129L15.8665 9.16359L15.8761 9.15577L14.6113 7.60645ZM14.1279 15.6484L15.6393 14.3386L15.6175 14.3134L15.5948 14.2889L14.1279 15.6484ZM10.9199 18.7686L10.1295 16.9314L10.1217 16.9348L10.9199 18.7686ZM3.97656 18.1973L2.107 18.9077L2.11316 18.9239L2.11961 18.94L3.97656 18.1973ZM9.25 4.44238L8.16848 2.76002L8.163 2.76357L9.25 4.44238ZM34.958 3.43164L33.938 5.15199L33.9446 5.1559L34.958 3.43164ZM36.1885 19.7793L34.7661 18.3733L34.7579 18.3816L36.1885 19.7793ZM27.4855 27.8872C30.8475 27.9642 33.6543 29.1008 36.0087 31.3033L38.7413 28.3822C35.6465 25.487 31.8907 23.987 27.577 23.8882L27.4855 27.8872ZM36.0171 31.3112C38.2405 33.3672 39.4619 36.326 39.4619 40.4775H43.4619C43.4619 35.4884 41.9587 31.3574 38.7329 28.3744L36.0171 31.3112ZM39.4619 40.4775C39.4619 46.4529 37.2322 51.1439 32.7418 54.7361L35.2406 57.8596C40.7112 53.4831 43.4619 47.6272 43.4619 40.4775H39.4619ZM32.7418 54.7361C28.1543 58.4061 22.5877 60.2744 15.9297 60.2744V64.2744C23.3928 64.2744 29.8672 62.1583 35.2406 57.8596L32.7418 54.7361ZM15.9297 60.2744C11.7456 60.2744 8.47354 59.4835 5.99285 58.0407L3.98176 61.4984C7.24326 63.3954 11.2661 64.2744 15.9297 64.2744V60.2744ZM6.00595 58.0484C3.58373 56.6148 2.68066 54.9841 2.68066 53.1338H-1.31934C-1.31934 56.7327 0.648696 59.5258 3.96866 61.4907L6.00595 58.0484ZM2.68066 53.1338C2.68066 51.9521 3.06031 51.1603 3.75549 50.552L1.12147 47.5417C-0.527107 48.9842 -1.31934 50.9171 -1.31934 53.1338H2.68066ZM3.75808 50.5498C4.64757 49.7687 5.49546 49.4648 6.34961 49.4648V45.4648C4.39126 45.4648 2.63172 46.2156 1.11887 47.544L3.75808 50.5498ZM6.34961 49.4648C7.30136 49.4648 7.90978 49.7441 8.36313 50.1974L11.1916 47.369C9.88709 46.0645 8.21035 45.4648 6.34961 45.4648V49.4648ZM8.3865 50.2204C8.98771 50.8022 9.69443 51.9218 10.4141 53.8041L14.1503 52.3756C13.3466 50.2735 12.3834 48.522 11.1682 47.346L8.3865 50.2204ZM10.4055 53.7813C10.9998 55.3944 11.8528 56.7809 13.0585 57.7683C14.2952 58.7811 15.7712 59.2646 17.3799 59.2646V55.2646C16.6155 55.2646 16.0554 55.0524 15.5929 54.6736C15.0994 54.2694 14.59 53.5685 14.1589 52.3984L10.4055 53.7813ZM17.3799 59.2646C20.7384 59.2646 23.5577 57.974 25.6524 55.4098L22.5546 52.8792C21.2509 54.4752 19.5878 55.2646 17.3799 55.2646V59.2646ZM25.6505 55.4122C27.8508 52.727 28.6963 48.2924 28.6963 42.7188H24.6963C24.6963 48.1607 23.8132 51.3433 22.5566 52.8769L25.6505 55.4122ZM28.6963 42.7188C28.6963 38.9104 28.4321 35.8244 27.8405 33.5567L23.97 34.5664C24.4332 36.3416 24.6963 39.0271 24.6963 42.7188H28.6963ZM27.8405 33.5567C27.5049 32.2702 26.895 31.0961 25.8764 30.2494C24.8397 29.3875 23.5776 29.0293 22.2578 29.0293V33.0293C22.8423 33.0293 23.1402 33.1764 23.3194 33.3253C23.5166 33.4893 23.7783 33.8313 23.97 34.5664L27.8405 33.5567ZM22.2578 29.0293C20.2304 29.0293 18.4329 30.0922 16.8885 31.6366L19.7169 34.465C20.8679 33.314 21.7071 33.0293 22.2578 33.0293V29.0293ZM16.8885 31.6366C16.4305 32.0946 16.0623 32.3712 15.7866 32.5257C15.5136 32.6788 15.3959 32.6768 15.4023 32.6768V36.6768C17.0742 36.6768 18.5331 35.6489 19.7169 34.465L16.8885 31.6366ZM15.4023 32.6768C15.3668 32.6768 15.3504 32.673 15.3477 32.6723C15.346 32.6719 15.3459 32.6718 15.3469 32.6722C15.3479 32.6725 15.3485 32.6729 15.3482 32.6727C15.348 32.6726 15.3456 32.6713 15.341 32.6681C15.3364 32.6648 15.3287 32.6589 15.3182 32.6494C15.297 32.6303 15.2625 32.5947 15.2181 32.5336L11.9831 34.8863C12.7896 35.9952 13.9671 36.6768 15.4023 36.6768V32.6768ZM15.253 32.5833C14.9663 32.1627 14.9414 31.9347 14.9414 31.8643H10.9414C10.9414 32.9657 11.356 33.9682 11.9481 34.8366L15.253 32.5833ZM14.9414 31.8643C14.9414 31.6173 15.0032 31.4957 15.1003 31.3857L12.1009 28.7393C11.319 29.6254 10.9414 30.7049 10.9414 31.8643H14.9414ZM15.057 31.4332C15.3437 31.1286 16.2184 30.4427 17.918 29.3096L15.6992 25.9814C14.059 27.0749 12.795 28.0003 12.1442 28.6918L15.057 31.4332ZM17.918 29.3096C24.4943 24.9254 28.3008 19.7965 28.3008 13.8467H24.3008C24.3008 17.8578 21.7791 21.9281 15.6992 25.9814L17.918 29.3096ZM28.3008 13.8467C28.3008 10.9087 27.5372 8.34353 25.6935 6.49985L22.8651 9.32828C23.7167 10.1799 24.3008 11.5698 24.3008 13.8467H28.3008ZM25.7086 6.51514C23.9897 4.75887 21.8506 3.84863 19.4014 3.84863V7.84863C20.7607 7.84863 21.8735 8.31535 22.85 9.31299L25.7086 6.51514ZM19.4014 3.84863C17.1564 3.84863 15.1183 4.61083 13.3466 6.05712L15.8761 9.15577C16.9755 8.25831 18.1308 7.84863 19.4014 7.84863V3.84863ZM13.3658 6.0416C11.5283 7.50416 10.458 9.42716 10.458 11.7373H14.458C14.458 10.8248 14.8233 9.99389 15.8568 9.17129L13.3658 6.0416ZM10.458 11.7373C10.458 13.7299 11.2653 15.502 12.6611 17.008L15.5948 14.2889C14.764 13.3925 14.458 12.5572 14.458 11.7373H10.458ZM12.6166 16.9583C12.6765 17.0275 12.7184 17.0817 12.7464 17.1212C12.7748 17.1612 12.7838 17.179 12.782 17.1754C12.7804 17.1724 12.7615 17.1359 12.7421 17.0687C12.7224 17.0007 12.6992 16.8905 12.6992 16.7471H16.6992C16.6992 15.6824 16.0702 14.8357 15.6393 14.3386L12.6166 16.9583ZM12.6992 16.7471C12.6992 16.0386 13.0814 15.6104 13.1238 15.5611C13.2212 15.4479 13.2931 15.3993 13.269 15.4173C13.2307 15.4458 13.0971 15.5337 12.8111 15.6866C12.2576 15.9827 11.3752 16.3954 10.1295 16.9314L11.7103 20.6057C12.9841 20.0577 13.9914 19.5916 14.6977 19.2138C15.0416 19.0298 15.3804 18.8321 15.657 18.6262C15.7904 18.527 15.9804 18.374 16.1565 18.1693C16.2777 18.0284 16.6992 17.5215 16.6992 16.7471H12.6992ZM10.1217 16.9348C8.89828 17.4673 7.93705 17.851 7.22309 18.0979C6.41968 18.3757 6.16195 18.3945 6.21777 18.3945V22.3945C6.91813 22.3945 7.76635 22.1424 8.53032 21.8782C9.38375 21.5831 10.4513 21.1538 11.7182 20.6024L10.1217 16.9348ZM6.21777 18.3945C6.26845 18.3945 6.3272 18.4066 6.37611 18.4282C6.41995 18.4476 6.41822 18.458 6.37646 18.4171C6.27557 18.3182 6.07087 18.0479 5.83352 17.4545L2.11961 18.94C2.76609 20.5562 3.99126 22.3945 6.21777 22.3945V18.3945ZM5.84613 17.4868C5.35318 16.1896 5.1416 15.0857 5.1416 14.1543H1.1416C1.1416 15.6838 1.48667 17.2753 2.107 18.9077L5.84613 17.4868ZM5.1416 14.1543C5.1416 11.1756 6.66334 8.49983 10.337 6.1212L8.163 2.76357C3.69213 5.65837 1.1416 9.45724 1.1416 14.1543H5.1416ZM10.3315 6.12474C14.0897 3.70877 18.3531 2.4873 23.1807 2.4873V-1.5127C17.6371 -1.5127 12.6134 -0.0974464 8.16848 2.76003L10.3315 6.12474ZM23.1807 2.4873C27.4279 2.4873 30.9878 3.40273 33.938 5.15198L35.978 1.71131C32.3072 -0.465231 28.0155 -1.5127 23.1807 -1.5127V2.4873ZM33.9446 5.1559C36.7755 6.81965 37.9678 8.89531 37.9678 11.4736H41.9678C41.9678 7.25508 39.8202 3.96941 35.9714 1.70738L33.9446 5.1559ZM37.9678 11.4736C37.9678 13.8331 36.9944 16.1191 34.7661 18.3733L37.6108 21.1853C40.4216 18.3418 41.9678 15.0908 41.9678 11.4736H37.9678ZM34.7579 18.3816C32.4396 20.7545 29.754 22.6507 26.689 24.0737L28.3735 27.7017C31.871 26.0779 34.9569 23.9017 37.619 21.177L34.7579 18.3816Z" fill="#FCFCFC"/>
</svg>
