<svg width="40" height="65" viewBox="0 0 40 65" fill="none" xmlns="http://www.w3.org/2000/svg">
<path d="M0.273438 61H-2.22656V63.5H0.273438V61ZM0.273438 56.8252L-1.40842 54.9755L-2.22656 55.7194V56.8252H0.273438ZM10.6006 18.373L12.6807 16.9863L12.6749 16.9776L10.6006 18.373ZM6.33789 21.5371L5.34883 19.2411L5.33565 19.2468L5.32254 19.2526L6.33789 21.5371ZM1.1084 20.3506L-1.20415 21.3004L-1.20112 21.3078L-1.19805 21.3151L1.1084 20.3506ZM5.67871 4.57422L4.20921 2.55168L4.20168 2.5572L5.67871 4.57422ZM33.1885 4.92578L31.6173 6.87034L31.6258 6.87721L31.6343 6.884L33.1885 4.92578ZM36.8359 24.6133L34.5802 23.5355L34.5753 23.5458L34.5705 23.5561L36.8359 24.6133ZM27.915 36.8301L29.8096 38.4612L29.8139 38.4562L27.915 36.8301ZM14.1162 52.0352L12.3148 50.3017L8.24108 54.5352H14.1162V52.0352ZM39.2969 52.0352L41.758 52.474L42.2821 49.5352H39.2969V52.0352ZM37.0557 64.6035V67.1035H39.1493L39.5168 65.0424L37.0557 64.6035ZM32.3975 64.6035L29.9937 63.9167L29.0831 67.1035H32.3975V64.6035ZM32.002 61.3076L33.1784 59.1017L33.1196 59.0704L33.0592 59.0422L32.002 61.3076ZM2.77344 61V56.8252H-2.22656V61H2.77344ZM1.95529 58.6749C17.9214 44.1575 26.5039 30.3008 26.5039 17.1426H21.5039C21.5039 28.125 14.2661 40.7233 -1.40842 54.9755L1.95529 58.6749ZM26.5039 17.1426C26.5039 13.3868 25.7191 10.0917 23.8987 7.49115L19.8025 10.3585C20.8532 11.8595 21.5039 14.0429 21.5039 17.1426H26.5039ZM23.8987 7.49115C22.0186 4.80538 19.3517 3.34863 16.0938 3.34863V8.34863C17.6405 8.34863 18.8115 8.94267 19.8025 10.3585L23.8987 7.49115ZM16.0938 3.34863C13.4581 3.34863 11.1404 4.32208 9.27227 6.19024L12.8078 9.72577C13.7521 8.78143 14.8036 8.34863 16.0938 8.34863V3.34863ZM9.27227 6.19024C7.46387 7.99865 6.47461 10.2175 6.47461 12.748H11.4746C11.4746 11.6458 11.8623 10.6713 12.8078 9.72577L9.27227 6.19024ZM6.47461 12.748C6.47461 15.3314 7.13691 17.7032 8.52628 19.7685L12.6749 16.9776C11.8963 15.8202 11.4746 14.4421 11.4746 12.748H6.47461ZM8.52046 19.7598C8.59167 19.8666 8.59836 19.8917 8.57973 19.8498C8.56911 19.8259 8.54139 19.7604 8.51459 19.6599C8.48866 19.5627 8.45215 19.3904 8.45215 19.1641H13.4521C13.4521 18.5723 13.2696 18.0909 13.1488 17.8191C13.013 17.5135 12.8439 17.231 12.6807 16.9863L8.52046 19.7598ZM8.45215 19.1641C8.45215 18.3108 8.94279 17.826 9.08802 17.7049C9.22167 17.5936 9.25441 17.6141 9.01965 17.7021L10.7753 22.3838C11.2436 22.2082 11.8037 21.9504 12.2889 21.546C12.7857 21.1321 13.4521 20.3396 13.4521 19.1641H8.45215ZM9.01965 17.7021C8.48168 17.9039 7.23125 18.4302 5.34883 19.2411L7.32695 23.8331C9.25313 23.0034 10.3757 22.5336 10.7753 22.3838L9.01965 17.7021ZM5.32254 19.2526C4.42429 19.6518 3.74039 19.9317 3.25202 20.107C3.00708 20.1949 2.84262 20.2452 2.74418 20.2707C2.60802 20.306 2.69897 20.2676 2.91016 20.2676V25.2676C3.34107 25.2676 3.73964 25.1779 3.99899 25.1107C4.29605 25.0336 4.61499 24.9301 4.94134 24.8129C5.59555 24.5781 6.40579 24.2427 7.35324 23.8216L5.32254 19.2526ZM2.91016 20.2676C3.44122 20.2676 3.80323 20.4745 3.95401 20.5822C4.09514 20.683 4.12717 20.7478 4.06857 20.6692C4.01774 20.601 3.93025 20.4673 3.81146 20.242C3.69478 20.0207 3.56208 19.7382 3.41485 19.3861L-1.19805 21.3151C-0.831097 22.1926 -0.419864 23.014 0.0598445 23.6575C0.43419 24.1597 1.37 25.2676 2.91016 25.2676V20.2676ZM3.42095 19.4008C2.87787 18.0785 2.59766 16.6453 2.59766 15.0771H-2.40234C-2.40234 17.259 -2.00873 19.3414 -1.20415 21.3004L3.42095 19.4008ZM2.59766 15.0771C2.59766 11.6667 4.01945 8.8879 7.15574 6.59124L4.20168 2.5572C-0.103434 5.70976 -2.40234 9.93291 -2.40234 15.0771H2.59766ZM7.1482 6.59674C10.3953 4.23755 14.4834 2.9873 19.5654 2.9873V-2.0127C13.6318 -2.0127 8.46216 -0.53833 4.20922 2.55169L7.1482 6.59674ZM19.5654 2.9873C24.5044 2.9873 28.4659 4.324 31.6173 6.87034L34.7597 2.98122C30.5869 -0.390406 25.4663 -2.0127 19.5654 -2.0127V2.9873ZM31.6343 6.884C34.7233 9.33553 36.2256 12.4499 36.2256 16.4395H41.2256C41.2256 10.9368 39.0365 6.3754 34.7426 2.96756L31.6343 6.884ZM36.2256 16.4395C36.2256 18.8643 35.6856 21.2218 34.5802 23.5355L39.0917 25.691C40.5058 22.7313 41.2256 19.6396 41.2256 16.4395H36.2256ZM34.5705 23.5561C33.5011 25.8477 30.7403 29.6876 26.0162 35.2039L29.8139 38.4562C34.5234 32.957 37.7099 28.6523 39.1014 25.6705L34.5705 23.5561ZM26.0205 35.1989C21.3303 40.6465 16.7617 45.6804 12.3148 50.3017L15.9176 53.7686C20.4355 49.0736 25.0662 43.9707 29.8096 38.4612L26.0205 35.1989ZM14.1162 54.5352H39.2969V49.5352H14.1162V54.5352ZM36.8357 51.5963L34.5945 64.1646L39.5168 65.0424L41.758 52.474L36.8357 51.5963ZM37.0557 62.1035H32.3975V67.1035H37.0557V62.1035ZM34.8013 65.2903C35.0237 64.5117 35.1611 63.719 35.1611 62.9336H30.1611C30.1611 63.1443 30.1228 63.4648 29.9937 63.9167L34.8013 65.2903ZM35.1611 62.9336C35.1611 61.8398 34.8942 60.0168 33.1784 59.1017L30.8255 63.5135C30.6511 63.4205 30.5014 63.2967 30.3846 63.1592C30.2713 63.0257 30.21 62.9044 30.1795 62.8292C30.1267 62.699 30.1611 62.6973 30.1611 62.9336H35.1611ZM33.0592 59.0422C32.4737 58.769 31.827 58.6549 31.3029 58.5938C30.7331 58.5273 30.0793 58.5 29.3652 58.5V63.5C29.9696 63.5 30.4144 63.524 30.7235 63.5601C30.8762 63.5779 30.9718 63.5959 31.0219 63.6076C31.079 63.621 31.0395 63.6173 30.9447 63.5731L33.0592 59.0422ZM29.3652 58.5H0.273438V63.5H29.3652V58.5Z" fill="black"/>
</svg>
