<svg width="62" height="48" viewBox="0 0 62 48" fill="none" xmlns="http://www.w3.org/2000/svg">
<path fill-rule="evenodd" clip-rule="evenodd" d="M35.7701 28.6299C36.323 28.5303 36.8836 28.4803 37.4453 28.4805C38.6266 28.4805 39.7568 28.699 40.798 29.0978L44.9406 23.207L45.0988 23.2967C43.563 21.5806 42.7154 19.3576 42.7188 17.0547C42.7188 11.8771 46.9161 7.67969 52.0938 7.67969C57.2714 7.67969 61.4688 11.8771 61.4688 17.0547C61.4688 22.2323 57.2714 26.4297 52.0938 26.4297C51.018 26.4297 49.9844 26.2483 49.022 25.9149L44.8296 32.0784C46.1225 33.7262 46.8236 35.761 46.8203 37.8555C46.8203 43.0331 42.6229 47.2305 37.4453 47.2305C32.2677 47.2305 28.0703 43.0331 28.0703 37.8555C28.0703 34.994 29.3523 32.432 31.3732 30.7123L25.29 18.6186C24.6626 18.7479 24.0235 18.8129 23.3828 18.8125C22.576 18.8131 21.7725 18.7097 20.9922 18.5049L16.6809 26.1016C18.4639 27.8081 19.5742 30.2119 19.5742 32.875C19.5742 38.0526 15.3769 42.25 10.1992 42.25C5.02158 42.25 0.824219 38.0526 0.824219 32.875C0.824219 27.6974 5.02158 23.5 10.1992 23.5C10.9771 23.5 11.7326 23.5946 12.4551 23.773L16.7937 16.1061C15.0736 14.4071 14.0078 12.047 14.0078 9.4375C14.0078 4.25986 18.2052 0.0625 23.3828 0.0625C28.5604 0.0625 32.7578 4.25986 32.7578 9.4375C32.7578 12.2392 31.5288 14.7537 29.5809 16.4717L35.7701 28.6299ZM52.0938 21.7422C54.6827 21.7422 56.7812 19.6437 56.7812 17.0547C56.7812 14.4657 54.6827 12.3672 52.0938 12.3672C49.5048 12.3672 47.4062 14.4657 47.4062 17.0547C47.4062 19.6437 49.5048 21.7422 52.0938 21.7422ZM10.1992 37.5625C12.7882 37.5625 14.8867 35.464 14.8867 32.875C14.8867 30.286 12.7882 28.1875 10.1992 28.1875C7.61025 28.1875 5.51172 30.286 5.51172 32.875C5.51172 35.464 7.61025 37.5625 10.1992 37.5625ZM23.3828 14.125C25.9718 14.125 28.0703 12.0265 28.0703 9.4375C28.0703 6.84854 25.9718 4.75 23.3828 4.75C20.7938 4.75 18.6953 6.84854 18.6953 9.4375C18.6953 12.0265 20.7938 14.125 23.3828 14.125ZM37.4453 42.543C40.0343 42.543 42.1328 40.4444 42.1328 37.8555C42.1328 35.2665 40.0343 33.168 37.4453 33.168C34.8563 33.168 32.7578 35.2665 32.7578 37.8555C32.7578 40.4444 34.8563 42.543 37.4453 42.543Z" fill="url(#paint0_linear_4731_377)"/>
<defs>
<linearGradient id="paint0_linear_4731_377" x1="0.824218" y1="47.2304" x2="62.6541" y2="45.6218" gradientUnits="userSpaceOnUse">
<stop stop-color="#6BE1BA"/>
<stop offset="1" stop-color="#6E54EF"/>
</linearGradient>
</defs>
</svg>
