<svg width="30" height="54" viewBox="0 0 30 54" fill="none" xmlns="http://www.w3.org/2000/svg">
<path d="M21 48C21 51.3 15 54 15 54C15 54 9 51.3 9 48M15 18C13.8161 17.9696 12.6891 17.4858 11.8516 16.6484C11.0142 15.8109 10.5304 14.6839 10.5 13.5C10.5 12.3065 10.9741 11.1619 11.818 10.318C12.6619 9.4741 13.8065 9 15 9C16.1935 9 17.3381 9.4741 18.182 10.318C19.0259 11.1619 19.5 12.3065 19.5 13.5C19.4696 14.6839 18.9858 15.8109 18.1484 16.6484C17.3109 17.4858 16.1839 17.9696 15 18ZM24.9 32.1C27.3 20.7 23.1 0 15 0C6.9 0 2.4 20.1 4.8 31.5L0 42H8.1L9 45H21C21.6 44.1 21.3 43.5 21.9 42H30L24.9 32.1Z" fill="url(#paint0_linear_4731_80)"/>
<defs>
<linearGradient id="paint0_linear_4731_80" x1="-2.23517e-07" y1="54" x2="30.6032" y2="53.6559" gradientUnits="userSpaceOnUse">
<stop stop-color="#6BE1BA"/>
<stop offset="1" stop-color="#6E54EF"/>
</linearGradient>
</defs>
</svg>
