<svg width="108" height="20" viewBox="0 0 108 20" fill="none" xmlns="http://www.w3.org/2000/svg">
<path d="M0.788086 19.6078V0H9.02338C10.2372 0 11.3016 0.214753 12.2167 0.644258C13.1504 1.05509 13.8693 1.65266 14.3735 2.43697C14.8964 3.22129 15.1578 4.155 15.1578 5.2381V5.54622C15.1578 6.77871 14.859 7.76844 14.2615 8.51541C13.6826 9.2437 12.973 9.75724 12.1326 10.056V10.5042C12.8422 10.5416 13.4118 10.7843 13.8413 11.2325C14.2708 11.662 14.4856 12.2876 14.4856 13.1092V19.6078H11.4323V13.5294C11.4323 13.0252 11.3016 12.6237 11.0402 12.3249C10.7787 12.0261 10.3586 11.8767 9.77968 11.8767H3.8133V19.6078H0.788086ZM3.8133 9.13165H8.68725C9.77035 9.13165 10.6107 8.86088 11.2083 8.31933C11.8058 7.7591 12.1046 7.0028 12.1046 6.05042V5.82633C12.1046 4.87395 11.8058 4.12698 11.2083 3.58543C10.6294 3.02521 9.78902 2.7451 8.68725 2.7451H3.8133V9.13165Z" fill="url(#paint0_linear_4642_32)"/>
<path d="M24.0608 20C22.6602 20 21.4371 19.7106 20.3913 19.1317C19.3456 18.5341 18.5239 17.7031 17.9263 16.6387C17.3474 15.5556 17.058 14.3044 17.058 12.8852V12.549C17.058 11.1111 17.3474 9.85994 17.9263 8.79552C18.5052 7.71242 19.3082 6.88142 20.3353 6.30252C21.3811 5.70495 22.5855 5.40616 23.9488 5.40616C25.2746 5.40616 26.4324 5.70495 27.4221 6.30252C28.4305 6.88142 29.2149 7.69374 29.7751 8.7395C30.3353 9.78525 30.6154 11.0084 30.6154 12.409V13.5014H19.9992C20.0365 14.7152 20.438 15.6863 21.2037 16.4146C21.988 17.1242 22.959 17.479 24.1168 17.479C25.1999 17.479 26.0122 17.2362 26.5538 16.7507C27.114 16.2652 27.5435 15.7049 27.8423 15.07L30.2233 16.3025C29.9618 16.8254 29.579 17.3763 29.0748 17.9552C28.5893 18.5341 27.945 19.0196 27.142 19.4118C26.339 19.8039 25.312 20 24.0608 20ZM20.0272 11.2885H27.6742C27.5995 10.2428 27.2261 9.43044 26.5538 8.85154C25.8815 8.25397 25.0038 7.95518 23.9207 7.95518C22.8376 7.95518 21.9506 8.25397 21.2597 8.85154C20.5874 9.43044 20.1766 10.2428 20.0272 11.2885Z" fill="url(#paint1_linear_4642_32)"/>
<path d="M39.6626 20C38.3367 20 37.1323 19.7199 36.0492 19.1597C34.9847 18.5994 34.1351 17.7871 33.5001 16.7227C32.8839 15.6583 32.5758 14.3791 32.5758 12.8852V12.521C32.5758 11.0271 32.8839 9.75724 33.5001 8.71148C34.1351 7.64706 34.9847 6.83473 36.0492 6.27451C37.1323 5.69561 38.3367 5.40616 39.6626 5.40616C40.9885 5.40616 42.1183 5.64893 43.052 6.13445C43.9857 6.61998 44.7326 7.26424 45.2929 8.06723C45.8717 8.87021 46.2452 9.75724 46.4133 10.7283L43.6122 11.3165C43.5188 10.7003 43.3227 10.1401 43.0239 9.63586C42.7252 9.13165 42.305 8.73016 41.7634 8.43137C41.2219 8.13259 40.5403 7.98319 39.7186 7.98319C38.9156 7.98319 38.1873 8.16994 37.5338 8.54342C36.8988 8.89823 36.3946 9.4211 36.0211 10.112C35.6477 10.7843 35.4609 11.606 35.4609 12.577V12.8291C35.4609 13.8002 35.6477 14.6312 36.0211 15.3221C36.3946 16.0131 36.8988 16.5359 37.5338 16.8908C38.1873 17.2456 38.9156 17.423 39.7186 17.423C40.9324 17.423 41.8568 17.1148 42.4917 16.4986C43.1267 15.8637 43.5281 15.0607 43.6962 14.0896L46.4973 14.7339C46.2732 15.6863 45.8717 16.564 45.2929 17.3669C44.7326 18.1699 43.9857 18.8142 43.052 19.2997C42.1183 19.7666 40.9885 20 39.6626 20Z" fill="url(#paint2_linear_4642_32)"/>
<path d="M53.647 19.6078C52.8066 19.6078 52.1344 19.3557 51.6302 18.8515C51.1446 18.3473 50.9019 17.6751 50.9019 16.8347V8.23529H47.0924V5.79832H50.9019V1.23249H53.787V5.79832H57.9047V8.23529H53.787V16.3305C53.787 16.8908 54.0485 17.1709 54.5713 17.1709H57.4565V19.6078H53.647Z" fill="url(#paint3_linear_4642_32)"/>
<path d="M60.4539 19.6078V0H63.3391V7.7591H63.7873C63.974 7.4043 64.2354 7.05882 64.5716 6.72269C64.9264 6.38656 65.3839 6.11578 65.9441 5.91036C66.523 5.68627 67.2513 5.57423 68.129 5.57423C69.1747 5.57423 70.0991 5.80766 70.9021 6.27451C71.7238 6.74136 72.368 7.4043 72.8349 8.26331C73.3017 9.10364 73.5351 10.1214 73.5351 11.3165V19.6078H70.65V11.5406C70.65 10.3455 70.3512 9.46779 69.7536 8.90756C69.1561 8.32866 68.3344 8.03922 67.2887 8.03922C66.0935 8.03922 65.1318 8.43137 64.4035 9.21569C63.6939 10 63.3391 11.1391 63.3391 12.6331V19.6078H60.4539Z" fill="url(#paint4_linear_4642_32)"/>
<path d="M81.9223 19.8599C80.8766 19.8599 79.9429 19.6265 79.1212 19.1597C78.2995 18.6928 77.6553 18.0299 77.1884 17.1709C76.7216 16.3119 76.4881 15.2848 76.4881 14.0896V5.79832H79.3733V13.8936C79.3733 15.0887 79.6721 15.9757 80.2697 16.5546C80.8672 17.1148 81.6982 17.395 82.7627 17.395C83.9391 17.395 84.8822 17.0028 85.5918 16.2185C86.3201 15.4155 86.6842 14.267 86.6842 12.7731V5.79832H89.5694V19.6078H86.7402V17.535H86.2921C86.0306 18.0952 85.5638 18.6275 84.8915 19.1317C84.2192 19.6172 83.2295 19.8599 81.9223 19.8599Z" fill="url(#paint5_linear_4642_32)"/>
<path d="M100.977 20C99.6326 20 98.5962 19.7572 97.8679 19.2717C97.1583 18.7862 96.6261 18.2446 96.2713 17.6471H95.8231V19.6078H92.994V0H95.8791V7.67507H96.3273C96.5514 7.30159 96.8502 6.94678 97.2237 6.61064C97.5971 6.25584 98.092 5.96639 98.7083 5.7423C99.3245 5.51821 100.081 5.40616 100.977 5.40616C102.135 5.40616 103.199 5.68627 104.17 6.2465C105.141 6.80672 105.916 7.61905 106.495 8.68347C107.074 9.7479 107.364 11.0177 107.364 12.493V12.9132C107.364 14.4071 107.065 15.6863 106.467 16.7507C105.888 17.7965 105.113 18.5994 104.142 19.1597C103.19 19.7199 102.135 20 100.977 20ZM100.137 17.479C101.388 17.479 102.415 17.0775 103.218 16.2745C104.04 15.4715 104.451 14.3231 104.451 12.8291V12.577C104.451 11.1018 104.049 9.96265 103.246 9.15966C102.443 8.35668 101.407 7.95518 100.137 7.95518C98.9043 7.95518 97.8772 8.35668 97.0556 9.15966C96.2526 9.96265 95.8511 11.1018 95.8511 12.577V12.8291C95.8511 14.3231 96.2526 15.4715 97.0556 16.2745C97.8772 17.0775 98.9043 17.479 100.137 17.479Z" fill="url(#paint6_linear_4642_32)"/>
<defs>
<linearGradient id="paint0_linear_4642_32" x1="0.788085" y1="20" x2="108.271" y2="8.41026" gradientUnits="userSpaceOnUse">
<stop stop-color="#6BE1BA"/>
<stop offset="1" stop-color="#6E54EF"/>
</linearGradient>
<linearGradient id="paint1_linear_4642_32" x1="0.788085" y1="20" x2="108.271" y2="8.41026" gradientUnits="userSpaceOnUse">
<stop stop-color="#6BE1BA"/>
<stop offset="1" stop-color="#6E54EF"/>
</linearGradient>
<linearGradient id="paint2_linear_4642_32" x1="0.788085" y1="20" x2="108.271" y2="8.41026" gradientUnits="userSpaceOnUse">
<stop stop-color="#6BE1BA"/>
<stop offset="1" stop-color="#6E54EF"/>
</linearGradient>
<linearGradient id="paint3_linear_4642_32" x1="0.788085" y1="20" x2="108.271" y2="8.41026" gradientUnits="userSpaceOnUse">
<stop stop-color="#6BE1BA"/>
<stop offset="1" stop-color="#6E54EF"/>
</linearGradient>
<linearGradient id="paint4_linear_4642_32" x1="0.788085" y1="20" x2="108.271" y2="8.41026" gradientUnits="userSpaceOnUse">
<stop stop-color="#6BE1BA"/>
<stop offset="1" stop-color="#6E54EF"/>
</linearGradient>
<linearGradient id="paint5_linear_4642_32" x1="0.788085" y1="20" x2="108.271" y2="8.41026" gradientUnits="userSpaceOnUse">
<stop stop-color="#6BE1BA"/>
<stop offset="1" stop-color="#6E54EF"/>
</linearGradient>
<linearGradient id="paint6_linear_4642_32" x1="0.788085" y1="20" x2="108.271" y2="8.41026" gradientUnits="userSpaceOnUse">
<stop stop-color="#6BE1BA"/>
<stop offset="1" stop-color="#6E54EF"/>
</linearGradient>
</defs>
</svg>
